<svg width="15" height="13" viewBox="0 0 15 13" xmlns="http://www.w3.org/2000/svg" xmlns:xlink="http://www.w3.org/1999/xlink"><use xlink:href="#path0_fill" transform="rotate(-180 7.375 6.24)" fill="#FFF"/><defs><path id="path0_fill" d="M14.624 6.75c0-.04.041-.04.041-.082s.042-.042.042-.083v-.083c0-.042 0-.042.041-.083v-.582c0-.042 0-.042-.041-.083 0-.042 0-.042-.042-.083v-.042s0-.041-.041-.041c0-.042-.042-.042-.042-.083 0-.042-.042-.042-.042-.083l-.04-.042c0-.042-.042-.042-.042-.083l-.041-.042L9.43.312a1.104 1.104 0 0 0-1.538 0 1.104 1.104 0 0 0 0 1.537l3.24 3.24H1.08c-.374 0-.706.208-.914.457C.083 5.712 0 5.92 0 6.128c0 .29.125.581.332.748.208.207.457.332.748.332h10.054l-3.24 3.24a1.104 1.104 0 0 0 0 1.537c.207.208.498.333.747.333.291 0 .54-.125.748-.332l5.068-5.069s0-.041.042-.041c0-.042.041-.042.041-.084.042 0 .084-.041.084-.041z"/></defs></svg>