<svg width="21" height="21" viewBox="0 0 21 21" xmlns="http://www.w3.org/2000/svg" xmlns:xlink="http://www.w3.org/1999/xlink"><use xlink:href="#path0_fill" transform="translate(.1 .24)" fill="#FB5E5B"/><defs><path id="path0_fill" d="M17.596 3.025a10.284 10.284 0 0 0-14.57 0 10.284 10.284 0 0 0 0 14.57 10.284 10.284 0 0 0 14.57 0c4.034-4.033 4.034-10.596 0-14.57zm-8.008.542h2.107c.663 0 .723.362.723.602v.421l-.422 7.768c-.06.602-.3.722-.722.722H10.13c-.421 0-.662-.12-.783-.722L8.866 4.35v-.18c0-.241.12-.603.722-.603zm1.084 14.992c-1.144 0-2.047-.903-2.047-1.987a2.03 2.03 0 0 1 2.047-2.047c1.084 0 1.987.903 1.987 2.047.06 1.084-.903 1.987-1.987 1.987z"/></defs></svg>