<svg width="11" height="12" viewBox="0 0 11 12" xmlns="http://www.w3.org/2000/svg" xmlns:xlink="http://www.w3.org/1999/xlink"><use xlink:href="#path0_fill" transform="translate(.5 .91)" fill="#FB5E5B"/><defs><path id="path0_fill" d="M8.679 1.492a5.072 5.072 0 0 0-7.187 0 5.072 5.072 0 0 0 0 7.187 5.072 5.072 0 0 0 7.187 0c1.99-1.99 1.99-5.227 0-7.187zm-3.95.267h1.04c.326 0 .356.179.356.297v.208l-.208 3.831c-.03.297-.149.356-.356.356h-.565c-.208 0-.326-.059-.386-.356l-.237-3.95v-.089c0-.118.06-.297.356-.297zm.535 7.395a.995.995 0 0 1-1.01-.98c0-.564.445-1.01 1.01-1.01.534 0 .98.446.98 1.01.03.534-.446.98-.98.98z"/></defs></svg>