<svg width="19" height="18" viewBox="0 0 19 18" xmlns="http://www.w3.org/2000/svg" xmlns:xlink="http://www.w3.org/1999/xlink"><use xlink:href="#path0_fill" transform="translate(1.34 5.54)" fill="#01247D"/><use xlink:href="#path1_fill" transform="translate(17.08 11.7)" fill="#01247D"/><use xlink:href="#path2_fill" transform="translate(3.54 12.88)" fill="#01247D"/><use xlink:href="#path3_fill" transform="translate(3.52 .41)" fill="#01247D"/><use xlink:href="#path4_fill" transform="translate(17.1 5.54)" fill="#01247D"/><use xlink:href="#path5_fill" transform="translate(12.63 12.87)" fill="#01247D"/><use xlink:href="#path6_fill" transform="translate(1.34 11.7)" fill="#01247D"/><use xlink:href="#path7_fill" transform="translate(12.62 .41)" fill="#01247D"/><use xlink:href="#path8_fill" transform="translate(11.5 10.58)" fill="#FFF"/><use xlink:href="#path9_fill" transform="translate(1.06 .14)" fill="#FFF"/><use xlink:href="#path10_fill" transform="translate(1.06 10.58)" fill="#FFF"/><use xlink:href="#path11_fill" transform="translate(11.5 .14)" fill="#FFF"/><use xlink:href="#path12_fill" transform="translate(.92)" fill="#CF142B"/><use xlink:href="#path13_fill" transform="translate(14.03 11.7)" fill="#CF142B"/><use xlink:href="#path14_fill" transform="translate(12.63 3.06)" fill="#CF142B"/><use xlink:href="#path15_fill" transform="translate(2.42 11.7)" fill="#CF142B"/><use xlink:href="#path16_fill" transform="translate(1.84 4.01)" fill="#CF142B"/><defs><path id="path0_fill" d="M.276 0A9.78 9.78 0 0 0 0 .758h1.412L.276 0z"/><path id="path1_fill" d="M1.14.77c.103-.251.198-.51.28-.77H0l1.14.77z"/><path id="path2_fill" d="M0 2.458a9.012 9.012 0 0 0 3.705 2.248V0L0 2.458z"/><path id="path3_fill" d="M3.705 0A9.058 9.058 0 0 0 0 2.256l3.705 2.47V0z"/><path id="path4_fill" d="M1.412.758A9.783 9.783 0 0 0 1.136 0L0 .758h1.412z"/><path id="path5_fill" d="M0 4.718A9.012 9.012 0 0 0 3.685 2.47L0 0v4.718z"/><path id="path6_fill" d="M0 0c.082.26.177.519.28.77L1.437 0H0z"/><path id="path7_fill" d="M3.705 2.256A9.058 9.058 0 0 0 0 0v4.722l3.705-2.466z"/><path id="path8_fill" d="M7.283 0H0v7.283c.38-.067.755-.158 1.124-.272V2.306l3.685 2.47a8.59 8.59 0 0 0 1.12-1.38l-3.401-2.26h2.128L6.51 2.371c.07-.152.144-.304.21-.46l-1.157-.77H7C7.12.766 7.215.385 7.283 0z"/><path id="path9_fill" d="M6.16.272v4.722l-3.706-2.47A9.251 9.251 0 0 0 1.37 3.87L4.8 6.16H2.676L.778 4.9c-.082.164-.156.333-.23.502l1.136.757H.272A9.198 9.198 0 0 0 0 7.271h7.27V0a8.502 8.502 0 0 0-1.11.272z"/><path id="path10_fill" d="M0 0c.067.38.158.755.272 1.124h1.437l-1.157.77a8.98 8.98 0 0 0 .823 1.494l3.4-2.264H6.16v.486L2.071 4.33c.132.148.263.293.412.412l3.705-2.47V7.01c.37.115.747.205 1.128.272V0H0z"/><path id="path11_fill" d="M7.011 6.16H5.6l1.137-.758a9.223 9.223 0 0 0-.824-1.54L2.454 6.159h-1.33v-.535l4.06-2.7c-.12-.137-.24-.268-.363-.413l-3.705 2.47V.272A8.6 8.6 0 0 0 0 0v7.27h7.283a8.502 8.502 0 0 0-.272-1.11z"/><path id="path12_fill" d="M17.86 7.41h-7.283V.14a9.096 9.096 0 0 0-3.166 0v7.27H.14a8.93 8.93 0 0 0 0 3.15h7.27v7.3a8.976 8.976 0 0 0 3.15 0v-7.283h7.3a8.926 8.926 0 0 0 0-3.15v-.016z"/><path id="path13_fill" d="M0 .004l3.4 2.26c.22-.33.418-.674.594-1.029L2.14 0 0 .004z"/><path id="path14_fill" d="M0 3.236h1.33L4.768.94A9.468 9.468 0 0 0 4.043 0L0 2.7v.536z"/><path id="path15_fill" d="M4.805 0H3.4L0 2.264c.219.33.458.644.716.943L4.805.486V0z"/><path id="path16_fill" d="M4.022 2.29L.592 0C.375.33.177.674 0 1.03l1.898 1.26h2.124z"/></defs></svg>