<svg class="svg-symbols" xmlns="http://www.w3.org/2000/svg" xmlns:xlink="http://www.w3.org/1999/xlink">
<defs>
<path id="angle-1-down-a" d="M8.31.707A1 1 0 1 0 6.894-.707L8.309.707zM3.8 3.801l-.707.707a1 1 0 0 0 1.414 0L3.8 3.801zM.707-.707A1 1 0 0 0-.707.707L.707-.707zm6.188 0l-3.801 3.8 1.414 1.415L8.31.708 6.895-.708zm-2.387 3.8l-3.8-3.8L-.708.707l3.8 3.801 1.415-1.414z"/>
<path id="angle-d-a" d="M8.31.707A1 1 0 1 0 6.894-.707L8.309.707zM3.8 3.801l-.707.707a1 1 0 0 0 1.414 0L3.8 3.801zM.707-.707A1 1 0 0 0-.707.707L.707-.707zm6.188 0l-3.801 3.8 1.414 1.415L8.31.708 6.895-.708zm-2.387 3.8l-3.8-3.8L-.708.707l3.8 3.801 1.415-1.414z"/>
<path id="angle-left-a" d="M8.861 6.097L2.236.342C1.739-.114.87-.114.373.342c-.497.455-.497 1.2 0 1.615l5.673 4.968-5.673 4.97c-.497.455-.497 1.2 0 1.614.248.207.58.332.952.332.331 0 .704-.125.911-.332L8.82 7.754c.248-.207.373-.497.373-.829.041-.29-.083-.58-.332-.828z"/>
<path id="buy-a" d="M4.847 0C2.887 0 1.134.928 0 2.372h.825c4.331 0 7.94 3.61 7.94 7.94v.825c1.341-1.237 2.27-2.99 2.27-4.95C11.034 2.784 8.25 0 4.846 0z"/><path id="buy-b" d="M6.187 0C2.784 0 0 2.784 0 6.187c0 3.404 2.784 6.188 6.187 6.188 3.404 0 6.188-2.784 6.188-6.188C12.375 2.784 9.59 0 6.187 0zm2.99 4.843l-.144.733a.172.172 0 0 1-.155.137h-.921l-.186.952h.976a.066.066 0 0 1 .065.082l-.143.733a.171.171 0 0 1-.161.136h-.916l-.14.725a.174.174 0 0 1-.163.134h-.927a.063.063 0 0 1-.065-.08l.336-1.731H5.494L5.169 8.34a.172.172 0 0 1-.163.134h-.921a.063.063 0 0 1-.065-.08l.15-.78H3.2a.065.065 0 0 1-.066-.08l.144-.736a.174.174 0 0 1 .163-.135h.915l.185-.954h-.965a.066.066 0 0 1-.064-.081l.143-.734a.171.171 0 0 1 .16-.135h.908l.144-.724a.171.171 0 0 1 .161-.136h.917a.065.065 0 0 1 .07.081L5.68 5.71h1.138l.326-1.673a.171.171 0 0 1 .161-.135h.925a.065.065 0 0 1 .066.08l-.151.779h.967a.065.065 0 0 1 .064.08z"/>
<path id="dialog-a" d="M20.25 0h-1.998v1.998c0 3.087-2.997 6.084-6.084 6.084H2.906L0 10.987v1.18c0 1.999 1.998 4.087 4.086 4.087h10.17l6.084 6.084v-6.175c1.998 0 4.087-1.997 4.087-4.086V3.995C24.335 1.998 22.338 0 20.25 0z"/><path id="dialog-b" d="M20.25 0H4.085C1.998 0 0 1.998 0 4.086v8.082c0 1.998 1.998 4.086 4.086 4.086.363 0-.908 0 0 0v6.084l6.084-6.084h10.17c1.998 0 4.087-1.998 4.087-4.086V4.086C24.335 1.998 22.247 0 20.25 0z"/>
<path id="logo-a" d="M25.768 7.319l.624-3.202a.282.282 0 0 0-.282-.352h-4.222l.662-3.4a.283.283 0 0 0-.288-.352h-4.04a.747.747 0 0 0-.704.592l-1.425 7.306h-4.968L12.592.354a.283.283 0 0 0-.31-.352H8.28a.747.747 0 0 0-.704.593l-.63 3.159h-3.96a.747.747 0 0 0-.704.592l-.624 3.202a.288.288 0 0 0 .283.358h4.21l-.806 4.162H1.348a.758.758 0 0 0-.71.593l-.63 3.212a.283.283 0 0 0 .289.352h4.237l-.656 3.4a.278.278 0 0 0 .283.352h4.023a.753.753 0 0 0 .71-.587l1.42-7.322h4.973l-1.467 7.557a.277.277 0 0 0 .282.352h4.05a.758.758 0 0 0 .71-.587l.614-3.165h3.997a.747.747 0 0 0 .705-.592l.624-3.202a.288.288 0 0 0-.283-.357h-4.264l.812-4.158h4.023a.753.753 0 0 0 .678-.597z"/><path id="logo-b" d="M24.038 16.149a.656.656 0 0 1-.57.208h-3.576c-.497 0-.694-.224-.587-.678l1.66-8.538c.198-.996.177-1.658-.065-1.986a1.494 1.494 0 0 0-1.27-.512 4.803 4.803 0 0 0-1.494.31c-.546.18-1.08.391-1.601.635l-.294 1.494-1.638 8.597a1.388 1.388 0 0 1-.213.47.688.688 0 0 1-.598.208h-3.591c-.475 0-.662-.224-.534-.678l1.66-8.65c.17-.913.149-1.537-.07-1.873a1.324 1.324 0 0 0-1.217-.513c-.505.02-1.003.12-1.478.294-.562.178-1.111.396-1.643.65L4.997 15.68c-.046.17-.124.329-.229.47a.76.76 0 0 1-.619.208H.573c-.48 0-.661-.224-.533-.678L2.868 1.046c.032-.2.123-.385.262-.533A.8.8 0 0 1 3.717.32h3.575c.304 0 .48.074.534.224.048.16.048.33 0 .49l-.16.759.032.032A10.566 10.566 0 0 1 10.222.507a7.583 7.583 0 0 1 2.583-.47 5.203 5.203 0 0 1 2.47.534 2.535 2.535 0 0 1 1.303 1.676 15.143 15.143 0 0 1 2.908-1.6 7.823 7.823 0 0 1 3.01-.636 4.659 4.659 0 0 1 2.567.566c.538.35.939.873 1.136 1.483.202.663.264 1.361.182 2.05a25.68 25.68 0 0 1-.342 2.273l-1.787 9.296a1.628 1.628 0 0 1-.214.47z"/><path id="logo-c" d="M.003 11.104C.005 10.4.066 9.7.184 9.007c.117-.705.267-1.393.438-2.066.227-.85.533-1.677.912-2.47a7.653 7.653 0 0 1 1.601-2.247A7.893 7.893 0 0 1 5.74.623 10.593 10.593 0 0 1 9.61.004a9.008 9.008 0 0 1 2.193.261 5.73 5.73 0 0 1 1.857.796c.53.346.97.812 1.286 1.36.326.591.49 1.258.475 1.932a4.52 4.52 0 0 1-1.025 3.09 6.804 6.804 0 0 1-2.556 1.804c-1.057.434-2.165.73-3.298.88-1.185.16-2.604.283-3.602.326-.11.378-.17.77-.176 1.163 0 .977 1.67 1.068 1.996 1.116 1.232.16 3.735-.15 5.57-.475.192-.05.392-.05.582 0 .155.053.23.234.23.533v1.559c.028.324-.046.649-.213.928a2.086 2.086 0 0 1-.924.534 9.019 9.019 0 0 1-1.27.341c-.475.096-.976.176-1.494.23a42.1 42.1 0 0 1-1.564.128c-.496.032-1.003.048-1.462.048-.852.02-1.704-.068-2.535-.262a4.995 4.995 0 0 1-1.953-.955 4.515 4.515 0 0 1-1.265-1.708 6.222 6.222 0 0 1-.458-2.53zm10.763-6.126a1.325 1.325 0 0 0-.443-1.025 1.75 1.75 0 0 0-1.238-.406 2.935 2.935 0 0 0-1.6.443 3.837 3.837 0 0 0-.972 1.068 6.254 6.254 0 0 0-.651 1.456c-.165.534-.16.47-.288.977 2.668.128 4.365-.736 4.696-1.11.335-.39.512-.89.496-1.403z"/><path id="logo-d" d="M10.05 18.507a.846.846 0 0 1-.214.651c-.144.185-.341.32-.565.39a10.57 10.57 0 0 1-1.319.325 19.005 19.005 0 0 1-3.559.358c-.82.04-1.638-.11-2.39-.438A2.85 2.85 0 0 1 .747 18.64a3.373 3.373 0 0 1-.39-1.643 10 10 0 0 1 .198-1.937l1.43-7.247H.583c-.262 0-.432-.06-.507-.182a.758.758 0 0 1-.048-.533l.485-2.44a1.02 1.02 0 0 1 .246-.533.784.784 0 0 1 .57-.176h1.463L3.4.827C3.566.187 3.806 0 4.366 0h3.48c.533 0 .448.336.405.598l-.645 3.351h3.314c.304 0 .48.053.533.16a.9.9 0 0 1 0 .534l-.49 2.47a1.185 1.185 0 0 1-.209.534.758.758 0 0 1-.603.182H6.8l-1.142 6.03a5.14 5.14 0 0 0-.112.8.864.864 0 0 0 .128.534.96.96 0 0 0 .533.325c.35.086.709.124 1.068.113a24.007 24.007 0 0 0 2.273-.128c.18-.01.36.012.534.064.117.042.165.25.144.619l-.176 2.321z"/><path id="logo-e" d="M14.032 15.43a1.067 1.067 0 0 1-.197.492.722.722 0 0 1-.62.224h-3.67c-.284 0-.454-.059-.534-.176a.848.848 0 0 1 0-.502l.165-.816-.032-.032c-.81.544-1.678.997-2.588 1.35a6.713 6.713 0 0 1-2.354.437c-1.604 0-2.705-.416-3.303-1.248a5.683 5.683 0 0 1-.891-3.368c.002-.55.04-1.098.112-1.643.075-.571.165-1.174.277-1.804.209-1.164.503-2.311.881-3.431a9.216 9.216 0 0 1 1.403-2.615A5.827 5.827 0 0 1 4.78.606 7.092 7.092 0 0 1 7.853.003a7.92 7.92 0 0 1 1.953.293 8.575 8.575 0 0 1 2.012.812l.133-.534a.599.599 0 0 1 .224-.422.993.993 0 0 1 .491-.101h3.608c.304 0 .48.07.533.197a1.03 1.03 0 0 1 0 .534l-2.775 14.649zM8.696 4.097a3.613 3.613 0 0 0-1.228.192 2.135 2.135 0 0 0-.854.62 7.081 7.081 0 0 0-.763 1.6 12.018 12.018 0 0 0-.437 1.66 12.516 12.516 0 0 0-.262 2.182c-.061.483.06.97.342 1.367.302.238.683.354 1.067.325a7.435 7.435 0 0 0 1.852-.33 7.004 7.004 0 0 0 1.425-.636l1.27-6.436a5.94 5.94 0 0 0-2.423-.544h.01z"/><path id="logo-f" d="M12.997 22.37a.614.614 0 0 1-.683.534h-1.366c-.368 0-.534-.181-.421-.533l1.883-9.606c.118-.606.19-1.22.214-1.836.028-.394-.04-.79-.198-1.152a1.153 1.153 0 0 0-.683-.587 3.863 3.863 0 0 0-1.216-.16 5.672 5.672 0 0 0-1.43.224c-.566.154-1.121.325-1.676.533-.555.208-1.068.395-1.575.603-.506.208-.88.374-1.142.502l-2.24 11.51a.614.614 0 0 1-.684.534H.446c-.368 0-.507-.181-.422-.533L4.251.533A.624.624 0 0 1 4.88 0h1.334c.39 0 .533.187.485.534L5.1 8.789h.069c.299-.17.683-.379 1.152-.619a16.03 16.03 0 0 1 1.527-.667A17.08 17.08 0 0 1 9.57 6.97a7.156 7.156 0 0 1 1.74-.23 5.155 5.155 0 0 1 2.407.459 2.53 2.53 0 0 1 1.184 1.249c.24.605.335 1.257.278 1.905a17.02 17.02 0 0 1-.325 2.401l-1.858 9.617z"/><path id="logo-g" d="M12.311 15.555a.576.576 0 0 1-.613.534h-1.335c-.39 0-.533-.182-.453-.534l.224-1.238a26.05 26.05 0 0 1-2.668 1.414 7.754 7.754 0 0 1-3.304.667c-1.494 0-2.561-.373-3.201-1.12C.32 14.53 0 13.43 0 11.98c0-.575.035-1.149.107-1.719.074-.63.176-1.26.304-1.889.227-1.213.543-2.408.944-3.575.325-.958.82-1.85 1.463-2.631A5.87 5.87 0 0 1 5.032.538 8.229 8.229 0 0 1 8.234.005c.71.016 1.414.12 2.098.31.81.206 1.595.5 2.342.874l.032-.032.096-.459a.492.492 0 0 1 .208-.357c.164-.052.336-.074.507-.064h1.212c.24 0 .39.037.459.117.07.08.074.23.032.47l-2.91 14.691zm0-12.322A11.148 11.148 0 0 0 7.83 2.225a4.888 4.888 0 0 0-1.841.31 3.038 3.038 0 0 0-1.313 1.04 6.89 6.89 0 0 0-.96 1.916 20.4 20.4 0 0 0-.727 2.945 32.602 32.602 0 0 0-.31 1.884c-.066.463-.103.93-.111 1.398 0 1.02.187 1.681.566 1.985a2.695 2.695 0 0 0 1.707.454 5.57 5.57 0 0 0 1.366-.197 15.43 15.43 0 0 0 1.601-.486 29.155 29.155 0 0 0 1.543-.603c.475-.208.88-.384 1.184-.534l1.777-9.104z"/><path id="logo-h" d="M13.28 2.225a.497.497 0 0 1-.325.326c-.19.045-.388.056-.582.032l-2.05-.214a20.03 20.03 0 0 0-2.08-.112 8.698 8.698 0 0 0-1.447.112c-.407.063-.8.2-1.158.406a2.097 2.097 0 0 0-.763.78 2.583 2.583 0 0 0-.277 1.264c-.012.322.08.64.261.907.18.244.407.449.667.603.297.17.615.3.945.39.356.096.711.176 1.067.24.347.064.785.17 1.318.31a6.32 6.32 0 0 1 1.543.645c.503.299.937.703 1.27 1.185.369.569.555 1.237.533 1.916a5.583 5.583 0 0 1-.56 2.668 4.473 4.473 0 0 1-1.51 1.654 6.259 6.259 0 0 1-2.199.86c-.864.162-1.741.242-2.62.24-.413 0-.861-.017-1.345-.049-.49-.032-.96-.08-1.414-.144a18.68 18.68 0 0 1-1.286-.23 4.32 4.32 0 0 1-.993-.325.533.533 0 0 1-.23-.683l.262-.683a.62.62 0 0 1 .326-.39c.158-.044.323-.055.485-.031l1.068.128c.405.048.81.085 1.222.117l1.2.08c.395 0 .716.032.977.032a9.204 9.204 0 0 0 1.601-.128 4.12 4.12 0 0 0 1.28-.443c.364-.199.664-.497.865-.859.222-.443.328-.935.31-1.43a1.74 1.74 0 0 0-.817-1.644 5.87 5.87 0 0 0-1.948-.667 14.407 14.407 0 0 1-1.531-.31 6.148 6.148 0 0 1-1.601-.63 3.885 3.885 0 0 1-1.185-1.146 3.08 3.08 0 0 1-.501-1.82 5.16 5.16 0 0 1 .533-2.423 4.27 4.27 0 0 1 1.42-1.6A6.206 6.206 0 0 1 6.065.277 10.504 10.504 0 0 1 8.493 0c.305 0 .678 0 1.126.032.449.032.902.07 1.372.133.47.064.912.15 1.334.251.366.082.723.198 1.067.347a.336.336 0 0 1 .246.278.95.95 0 0 1-.048.379l-.31.805z"/><path id="logo-i" d="M13.024 22.372a.619.619 0 0 1-.683.533h-1.367c-.368 0-.533-.181-.421-.534l1.884-9.605c.115-.606.186-1.22.213-1.836a2.513 2.513 0 0 0-.197-1.153 1.153 1.153 0 0 0-.683-.587 3.864 3.864 0 0 0-1.217-.16 5.77 5.77 0 0 0-1.43.224 18.51 18.51 0 0 0-1.676.534c-.55.208-1.067.395-1.601.603-.534.208-.875.374-1.137.502L2.473 22.372a.619.619 0 0 1-.683.533H.456c-.368 0-.533-.181-.421-.534L4.277.536A.624.624 0 0 1 4.928 0h1.329c.395 0 .534.187.49.534L5.143 8.81h.064c.304-.17.688-.378 1.158-.619a15.21 15.21 0 0 1 1.526-.667 17 17 0 0 1 1.724-.533 7.156 7.156 0 0 1 1.74-.23 5.155 5.155 0 0 1 2.406.46c.528.266.947.707 1.185 1.248a4.18 4.18 0 0 1 .277 1.905 17.82 17.82 0 0 1-.325 2.402l-1.873 9.595z"/>
<path id="metaapps-a" d="M17.961 5.093l.446-2.23c0-.15-.074-.261-.223-.261h-2.936l.446-2.379C15.73.112 15.619 0 15.508 0H12.72a.514.514 0 0 0-.483.409L11.233 5.5H7.776L8.817.223c0-.111-.111-.223-.26-.223H5.769a.515.515 0 0 0-.483.409L4.84 2.602H2.089a.515.515 0 0 0-.483.409L1.16 5.24a.203.203 0 0 0 .185.26h2.937l-.558 2.9H.937a.515.515 0 0 0-.484.409l-.446 2.23a.203.203 0 0 0 .186.26H3.13l-.446 2.38a.203.203 0 0 0 .186.26h2.787a.515.515 0 0 0 .484-.41l1.003-5.092h3.457l-1.04 5.278a.203.203 0 0 0 .185.26h2.9a.515.515 0 0 0 .483-.408l.446-2.193h2.788a.514.514 0 0 0 .483-.41l.446-2.23a.203.203 0 0 0-.186-.26H14.17l.557-2.9h2.788c.186-.074.41-.26.446-.482z"/>
<path id="metawallet-a" d="M16.716 4.776V2.388H2.986c-.36 0-.598-.239-.598-.597s.239-.597.597-.597h13.373C16 .478 15.164 0 14.328 0H2.388A2.395 2.395 0 0 0 0 2.388v10.746a2.395 2.395 0 0 0 2.388 2.388h11.94a2.395 2.395 0 0 0 2.388-2.388V11.94a2.395 2.395 0 0 0 2.389-2.388V7.164a2.395 2.395 0 0 0-2.389-2.388zm-.955 5.493c-1.074.119-1.91-.717-2.03-1.672-.12-1.075.717-1.91 1.672-2.03 1.075-.12 1.91.717 2.03 1.672.12.955-.717 1.91-1.672 2.03z"/>
<path id="refresh-a" d="M8.235 2.539c1.424 0 2.663.495 3.653 1.362l1.424-2.105A7.92 7.92 0 0 0 8.235 0C3.715 0 0 3.715 0 8.235c0 .248 0 .495.062.681l1.176 1.982L2.601 8.73c0-.185-.062-.31-.062-.495 0-3.158 2.6-5.696 5.696-5.696z"/><path id="refresh-b" d="M.63 0C.073 0-.175.372.135.867L2.55 4.83c.31.495.805.495 1.114 0L6.203.929c.31-.496.124-.867-.496-.867L.63 0z"/><path id="refresh-c" d="M5.077 8.297a5.437 5.437 0 0 1-3.653-1.362L0 9.04c1.424 1.115 3.158 1.796 5.077 1.796 4.582 0 8.235-3.715 8.235-8.235 0-.248 0-.496-.062-.682L12.074 0l-1.362 2.167c0 .186.062.31.062.495 0 3.034-2.6 5.635-5.697 5.635z"/><path id="refresh-d" d="M5.72 5.201c.557 0 .805-.371.495-.867L3.8.372c-.31-.496-.805-.496-1.114 0l-2.539 3.9c-.31.496-.124.867.495.867l5.078.062z"/>
<path id="search-a" d="M13.947 11.657l-2.665-2.664c.5-.875.791-1.874.791-2.956A6.041 6.041 0 0 0 6.037 0 6.041 6.041 0 0 0 0 6.037a6.041 6.041 0 0 0 6.037 6.036 5.88 5.88 0 0 0 3.372-1.04l2.581 2.58c.291.292.625.417 1 .417.374 0 .707-.125.998-.416.5-.542.5-1.416-.041-1.957zM1.873 6.037a4.175 4.175 0 0 1 4.164-4.164A4.175 4.175 0 0 1 10.2 6.037 4.175 4.175 0 0 1 6.037 10.2a4.175 4.175 0 0 1-4.164-4.163z"/>
<path id="settings-a" d="M10.902 13.45h.408l1.732 1.019c.102.102.204 0 .306 0 0 0 .306-.204.51-.408.203-.204.407-.51.407-.51.102-.101.102-.203 0-.305l-.917-1.732a.31.31 0 0 1 0-.408l.51-1.222c0-.102.203-.204.305-.204l1.732-.51c.102 0 .204-.102.204-.305V7.54c0-.102-.102-.204-.204-.306l-1.834-.51c-.102 0-.204-.101-.306-.203l-.509-1.223v-.407l1.019-1.732c.102-.102 0-.204 0-.306 0 0-.204-.306-.408-.51a6.186 6.186 0 0 1-.51-.305c-.101-.102-.203-.102-.305 0l-1.732.917a.31.31 0 0 1-.408 0l-1.12-.51c-.102 0-.204-.203-.204-.305L9.068.306C8.967.204 8.865 0 8.763 0H7.438c-.102 0-.204.204-.306.306L6.623 2.14c0 .102-.102.204-.204.305l-1.222.51h-.408L3.057 1.936s-.102 0-.204.102c0 0-.306.204-.51.407-.203.204-.407.51-.407.51-.102.102-.102.204-.102.306l.917 1.732a.31.31 0 0 1 0 .407l-.407 1.121c0 .102-.204.204-.306.204l-1.834.51c-.102 0-.204.203-.204.305v1.325c0 .102.102.203.204.305l1.834.408c.102 0 .204.102.306.204l.509 1.222v.408l-1.019 1.732c-.102.102 0 .204 0 .306 0 0 .204.306.408.51.203.203.51.407.51.407.101.102.203.102.305 0l1.732-.917a.31.31 0 0 1 .408 0l1.222.51c.102 0 .204.203.204.305l.51 1.834c0 .102.101.204.305.204h1.325c.102 0 .204-.102.305-.204l.51-1.936c0-.102.102-.204.204-.306l1.12-.407zm-4.687-3.363a2.583 2.583 0 0 1 0-3.668 2.583 2.583 0 0 1 3.669 0 2.583 2.583 0 0 1 0 3.668 2.583 2.583 0 0 1-3.669 0z"/>
<path id="user-a" d="M12.842 10.368c-.895-.473-2.21-1.526-4.158-1.894.474-.58.842-1.474 1.263-2.527.21-.631.158-1.158.158-1.894 0-.58.105-1.421-.053-1.948C9.633.474 8.527 0 7.264 0 6 0 4.895.474 4.473 2.105c-.105.527-.052 1.369-.052 1.948 0 .736-.053 1.263.21 1.894C5 7 5.369 7.895 5.896 8.474c-1.948.368-3.263 1.473-4.106 1.894C0 11.263 0 12.21 0 12.21v.369c0 .631.684 1.263 1.368 1.263h12c.842 0 1.369-.684 1.369-1.316v-.316c-.053 0-.053-.947-1.895-1.842z"/>
</defs>
<symbol id="isvg-angle-1-down" viewBox="0 0 10 6"><use xlink:href="#angle-1-down-a" transform="translate(1.04 1.199)"/></symbol>
<symbol id="isvg-angle-d" viewBox="0 0 11 7"><use xlink:href="#angle-d-a" transform="translate(1.47 1.6)"/></symbol>
<symbol id="isvg-angle-left" viewBox="0 0 10 15"><use xlink:href="#angle-left-a" transform="matrix(-1 0 0 1 9.272 .62)"/></symbol>
<symbol id="isvg-buy" viewBox="0 0 17 17"><use xlink:href="#buy-a" transform="translate(5.97 .46)"/><use xlink:href="#buy-b" transform="translate(.6 4.482)"/></symbol>
<symbol id="isvg-dialog" viewBox="0 0 34 33"><use xlink:href="#dialog-a" transform="translate(8.99 10.631)"/><use xlink:href="#dialog-b" transform="translate(.91 .461)"/></symbol>
<symbol id="isvg-logo" viewBox="0 0 162 24"><use xlink:href="#logo-a" transform="translate(0 3.36)"/><use xlink:href="#logo-b" transform="translate(28.097 6.98)"/><use xlink:href="#logo-c" transform="translate(55.298 7.06)"/><use xlink:href="#logo-d" transform="translate(72.002 3.36)"/><use xlink:href="#logo-e" transform="translate(84.115 7.19)"/><use xlink:href="#logo-f" transform="translate(102.392 .41)"/><use xlink:href="#logo-g" transform="translate(118.159 7.23)"/><use xlink:href="#logo-h" transform="translate(132.997 7.16)"/><use xlink:href="#logo-i" transform="translate(146.424 .41)"/></symbol>
<symbol id="isvg-metaapps" viewBox="0 0 19 14"><use xlink:href="#metaapps-a" transform="translate(.38 .012)"/></symbol>
<symbol id="isvg-metawallet" viewBox="0 0 20 17"><use xlink:href="#metawallet-a" transform="translate(.23 .886)"/></symbol>
<symbol id="isvg-refresh" viewBox="0 0 88 68"><use xlink:href="#refresh-a" transform="matrix(4 0 0 4 10.8 1.88)"/><use xlink:href="#refresh-b" transform="matrix(4 0 0 4 3.2 34.84)"/><use xlink:href="#refresh-c" transform="matrix(4 0 0 4 24 22.44)"/><use xlink:href="#refresh-d" transform="matrix(4 0 0 4 59.2 12.04)"/></symbol>
<symbol id="isvg-search" viewBox="0 0 15 15"><use xlink:href="#search-a" transform="translate(.58 .16)"/></symbol>
<symbol id="isvg-settings" viewBox="0 0 17 17"><use xlink:href="#settings-a" transform="translate(.24 .106)"/></symbol>
<symbol id="isvg-user" viewBox="0 0 16 15"><use xlink:href="#user-a" transform="translate(.403 .78)"/></symbol>
</svg>