<svg width="19" height="18" viewBox="0 0 19 18" version="1.1" xmlns="http://www.w3.org/2000/svg" xmlns:xlink="http://www.w3.org/1999/xlink">
<title>Layer 1</title>
<desc>Created using Figma</desc>
<g id="Canvas" transform="translate(-1015 2222)">
<g id="Layer 1">
<g id="Vector">
<use xlink:href="#path0_fill" transform="translate(1016.34 -2216.46)" fill="#01247D"/>
</g>
<g id="Vector">
<use xlink:href="#path1_fill" transform="translate(1032.08 -2210.3)" fill="#01247D"/>
</g>
<g id="Vector">
<use xlink:href="#path2_fill" transform="translate(1018.54 -2209.12)" fill="#01247D"/>
</g>
<g id="Vector">
<use xlink:href="#path3_fill" transform="translate(1018.52 -2221.59)" fill="#01247D"/>
</g>
<g id="Vector">
<use xlink:href="#path4_fill" transform="translate(1032.1 -2216.46)" fill="#01247D"/>
</g>
<g id="Vector">
<use xlink:href="#path5_fill" transform="translate(1027.63 -2209.13)" fill="#01247D"/>
</g>
<g id="Vector">
<use xlink:href="#path6_fill" transform="translate(1016.34 -2210.3)" fill="#01247D"/>
</g>
<g id="Vector">
<use xlink:href="#path7_fill" transform="translate(1027.62 -2221.59)" fill="#01247D"/>
</g>
<g id="Vector">
<use xlink:href="#path8_fill" transform="translate(1026.5 -2211.42)" fill="#FFFFFF"/>
</g>
<g id="Vector">
<use xlink:href="#path9_fill" transform="translate(1016.06 -2221.86)" fill="#FFFFFF"/>
</g>
<g id="Vector">
<use xlink:href="#path10_fill" transform="translate(1016.06 -2211.42)" fill="#FFFFFF"/>
</g>
<g id="Vector">
<use xlink:href="#path11_fill" transform="translate(1026.5 -2221.86)" fill="#FFFFFF"/>
</g>
<g id="Vector">
<use xlink:href="#path12_fill" transform="translate(1015.92 -2222)" fill="#CF142B"/>
</g>
<g id="Vector">
<use xlink:href="#path13_fill" transform="translate(1029.03 -2210.3)" fill="#CF142B"/>
</g>
<g id="Vector">
<use xlink:href="#path14_fill" transform="translate(1027.63 -2218.94)" fill="#CF142B"/>
</g>
<g id="Vector">
<use xlink:href="#path15_fill" transform="translate(1017.42 -2210.3)" fill="#CF142B"/>
</g>
<g id="Vector">
<use xlink:href="#path16_fill" transform="translate(1016.84 -2217.99)" fill="#CF142B"/>
</g>
</g>
</g>
<defs>
<path id="path0_fill" d="M 0.275847 1.57056e-08C 0.172919 0.247027 0.0823424 0.502289 4.57092e-17 0.757551L 1.41217 0.757551L 0.275847 1.57056e-08Z"/>
<path id="path1_fill" d="M 1.14044 0.769902C 1.24337 0.518758 1.33806 0.259379 1.42041 3.14111e-08L -1.88467e-07 3.14111e-08L 1.14044 0.769902Z"/>
<path id="path2_fill" d="M -3.92639e-08 2.45792C 1.0339 3.49749 2.30581 4.26911 3.70541 4.70587L 3.70541 3.76934e-07L -3.92639e-08 2.45792Z"/>
<path id="path3_fill" d="M 3.70541 0C 2.30575 0.440801 1.03414 1.21507 7.85279e-08 2.25618L 3.70541 4.72646L 3.70541 0Z"/>
<path id="path4_fill" d="M 1.41217 0.757551C 1.32983 0.502289 1.23925 0.247027 1.13633 1.57056e-08L 3.76934e-07 0.757551L 1.41217 0.757551Z"/>
<path id="path5_fill" d="M 3.14111e-08 4.71822C 1.39223 4.27845 2.65677 3.507 3.68482 2.47027L 3.14111e-08 9.42334e-08L 3.14111e-08 4.71822Z"/>
<path id="path6_fill" d="M 0 3.14111e-08C 0.0823424 0.259379 0.177036 0.518758 0.279964 0.769902L 1.43688 3.14111e-08L 0 3.14111e-08Z"/>
<path id="path7_fill" d="M 3.70541 2.25618C 2.67127 1.21507 1.39966 0.440801 -1.57056e-07 1.09702e-15L -1.57056e-07 4.72234L 3.70541 2.25618Z"/>
<path id="path8_fill" d="M 7.28319 2.19878e-07L 2.19878e-07 2.19878e-07L 2.19878e-07 7.28319C 0.379923 7.21597 0.755304 7.12522 1.12397 7.01146L 1.12397 2.30559L 4.8088 4.77586C 5.22876 4.35607 5.60405 3.89385 5.92866 3.39663L 2.52791 1.13633L 4.65647 1.13633L 6.50917 2.37146C 6.57916 2.21913 6.65327 2.0668 6.71914 1.91034L 5.56223 1.14044L 6.99911 1.14044C 7.11969 0.767217 7.21461 0.386181 7.28319 2.19878e-07Z"/>
<path id="path9_fill" d="M 6.15921 0.27173L 6.15921 4.99407L 2.4538 2.5238C 2.05166 2.9378 1.68915 3.38853 1.371 3.87009L 4.80056 6.15921L 2.67613 6.15921L 0.778136 4.89938C 0.695794 5.06406 0.621685 5.23286 0.547577 5.40166L 1.6839 6.15921L 0.27173 6.15921C 0.158168 6.52376 0.0674156 6.89502 1.4724e-09 7.27084L 7.27084 7.27084L 7.27084 1.4724e-09C 6.89461 0.0655081 6.52323 0.15629 6.15921 0.27173Z"/>
<path id="path10_fill" d="M 1.4724e-09 2.19878e-07C 0.0672172 0.379923 0.157969 0.755304 0.27173 1.12397L 1.70861 1.12397L 0.551694 1.89388C 0.778106 2.41706 1.05383 2.91749 1.37512 3.38839L 4.77586 1.12397L 6.15921 1.12397L 6.15921 1.60979L 2.07091 4.33121C 2.20266 4.47943 2.33441 4.62353 2.48262 4.74292L 6.18803 2.27265L 6.18803 7.01146C 6.55797 7.12569 6.93475 7.21645 7.31613 7.28319L 7.31613 2.19878e-07L 1.4724e-09 2.19878e-07Z"/>
<path id="path11_fill" d="M 7.01146 6.15921L 5.59929 6.15921L 6.73561 5.40166C 6.51045 4.86351 6.23474 4.34793 5.91219 3.86186L 2.4538 6.15921L 1.12397 6.15921L 1.12397 5.62399L 5.18346 2.92316C 5.06406 2.78729 4.94466 2.65554 4.82115 2.51144L 1.11574 4.98172L 1.11574 0.27173C 0.750295 0.156398 0.377552 0.0656191 2.19878e-07 1.4724e-09L 2.19878e-07 7.27084L 7.28319 7.27084C 7.21768 6.89461 7.1269 6.52323 7.01146 6.15921Z"/>
<path id="path12_fill" d="M 17.86 7.41083L 10.5769 7.41083L 10.5769 0.139988C 10.0563 0.0475834 9.52869 0.000745308 9 5.79287e-06C 8.46716 -0.000599595 7.93532 0.0462461 7.41079 0.139988L 7.41079 7.41083L 0.139953 7.41083C -0.0466512 8.4524 -0.0466512 9.51885 0.139953 10.5604L 7.41079 10.5604L 7.41079 17.8601C 7.92991 17.9529 8.45619 17.9997 8.98353 18.0001C 9.51222 17.9993 10.0398 17.9525 10.5604 17.8601L 10.5604 10.5769L 17.86 10.5769C 18.0467 9.53532 18.0467 8.46887 17.86 7.42729L 17.86 7.41083Z"/>
<path id="path13_fill" d="M -3.14111e-08 0.00411715L 3.40074 2.26442C 3.61986 1.93416 3.81787 1.59038 3.99361 1.23514L 2.1409 -6.28223e-08L -3.14111e-08 0.00411715Z"/>
<path id="path14_fill" d="M 3.14111e-08 3.23606L 1.32983 3.23606L 4.76763 0.938704C 4.54594 0.610971 4.30393 0.297455 4.04301 2.35584e-08L 3.14111e-08 2.70083L 3.14111e-08 3.23606Z"/>
<path id="path15_fill" d="M 4.80468 3.14111e-08L 3.40074 3.14111e-08L 4.71167e-08 2.26442C 0.218561 2.59356 0.457837 2.90847 0.716379 3.20724L 4.80468 0.485821L 4.80468 3.14111e-08Z"/>
<path id="path16_fill" d="M 4.02243 2.28912L 0.592866 -9.42334e-08C 0.37375 0.330257 0.175734 0.674036 7.85279e-09 1.02928L 1.89799 2.28912L 4.02243 2.28912Z"/>
</defs>
</svg>
