<svg width="15" height="13" viewBox="0 0 15 13" version="1.1" xmlns="http://www.w3.org/2000/svg" xmlns:xlink="http://www.w3.org/1999/xlink">
<title>Vector</title>
<desc>Created using Figma</desc>
<g id="Canvas" transform="translate(-1480 2134)">
<g id="Vector">
<use xlink:href="#path0_fill" transform="matrix(-1 -1.22465e-16 1.22465e-16 -1 1494.75 -2121.52)" fill="#FFFFFF"/>
</g>
</g>
<defs>
<path id="path0_fill" d="M 14.6236 6.75094C 14.6236 6.7094 14.6651 6.7094 14.6651 6.66785C 14.6651 6.62631 14.7067 6.62631 14.7067 6.58476L 14.7067 6.54322C 14.7067 6.54322 14.7067 6.54322 14.7067 6.50168C 14.7067 6.46013 14.7067 6.46013 14.7482 6.41859C 14.7482 6.37704 14.7482 6.37704 14.7482 6.3355C 14.7482 6.29395 14.7482 6.29395 14.7482 6.25241C 14.7482 6.21087 14.7482 6.21087 14.7482 6.16932C 14.7482 6.12778 14.7482 6.12778 14.7482 6.08623C 14.7482 6.04469 14.7482 6.04469 14.7482 6.00314C 14.7482 5.9616 14.7482 5.9616 14.7482 5.92006C 14.7482 5.87851 14.7482 5.87851 14.7482 5.83697C 14.7482 5.79542 14.7482 5.79542 14.7067 5.75388C 14.7067 5.71233 14.7067 5.71233 14.6651 5.67079C 14.6651 5.67079 14.6651 5.67079 14.6651 5.62925C 14.6651 5.62925 14.6651 5.5877 14.6236 5.5877C 14.6236 5.54616 14.582 5.54616 14.582 5.50461C 14.582 5.46307 14.5405 5.46307 14.5405 5.42153L 14.4989 5.37998C 14.4989 5.33844 14.4574 5.33844 14.4574 5.29689C 14.4574 5.29689 14.4574 5.29689 14.4159 5.25535L 9.43055 0.311582C 9.0151 -0.103861 8.30885 -0.103861 7.89341 0.311582C 7.47797 0.727024 7.47797 1.43328 7.89341 1.84872L 11.1339 5.08917L 1.08015 5.08917C 0.706252 5.08917 0.373898 5.29689 0.166177 5.54616C 0.0830885 5.71233 0 5.92006 0 6.12778C 0 6.41859 0.124633 6.7094 0.332354 6.87557C 0.540075 7.0833 0.789341 7.20793 1.08015 7.20793L 11.1339 7.20793L 7.89341 10.4484C 7.47797 10.8638 7.47797 11.5701 7.89341 11.9855C 8.10113 12.1932 8.39194 12.3179 8.6412 12.3179C 8.93201 12.3179 9.18128 12.1932 9.389 11.9855L 14.4574 6.91712C 14.4574 6.91712 14.4574 6.87557 14.4989 6.87557C 14.4989 6.83403 14.5405 6.83403 14.5405 6.79249C 14.582 6.79249 14.6236 6.75094 14.6236 6.75094Z"/>
</defs>
</svg>
