<svg width="21" height="21" viewBox="0 0 21 21" version="1.1" xmlns="http://www.w3.org/2000/svg" xmlns:xlink="http://www.w3.org/1999/xlink">
<title>Vector</title>
<desc>Created using Figma</desc>
<g id="Canvas" transform="translate(-7049 593)">
<g id="Vector">
<use xlink:href="#path0_fill" transform="translate(7049.1 -592.76)" fill="#FB5E5B"/>
</g>
</g>
<defs>
<path id="path0_fill" d="M 17.5958 3.02543C 13.5618 -1.0085 7.05938 -1.0085 3.02544 3.02543C -1.00849 7.05936 -1.00849 13.5618 3.02544 17.5958C 7.05938 21.6297 13.5618 21.6297 17.5958 17.5958C 21.6297 13.5618 21.6297 6.99916 17.5958 3.02543ZM 9.58811 3.56732L 11.6954 3.56732C 12.3577 3.56732 12.4179 3.92857 12.4179 4.1694C 12.4179 4.22961 12.4179 4.2296 12.4179 4.35002L 12.4179 4.59086L 11.9964 12.3577C 11.9362 12.9597 11.6954 13.0802 11.2739 13.0802L 10.13 13.0802C 9.70854 13.0802 9.46769 12.9597 9.34728 12.3577L 8.86562 4.35002C 8.86562 4.2296 8.86562 4.22961 8.86562 4.1694C 8.86562 3.92857 8.98603 3.56732 9.58811 3.56732ZM 10.6719 18.5591C 9.52791 18.5591 8.62479 17.656 8.62479 16.5722C 8.62479 15.4283 9.52791 14.5252 10.6719 14.5252C 11.7556 14.5252 12.6587 15.4283 12.6587 16.5722C 12.7189 17.656 11.7556 18.5591 10.6719 18.5591Z"/>
</defs>
</svg>
