<svg width="11" height="12" viewBox="0 0 11 12" version="1.1" xmlns="http://www.w3.org/2000/svg" xmlns:xlink="http://www.w3.org/1999/xlink">
<title>Vector</title>
<desc>Created using Figma</desc>
<g id="Canvas" transform="translate(-817 1753)">
<g id="Vector">
<use xlink:href="#path0_fill" transform="translate(817.5 -1752.09)" fill="#FB5E5B"/>
</g>
</g>
<defs>
<path id="path0_fill" d="M 8.67857 1.4922C 6.68896 -0.49741 3.48182 -0.49741 1.49221 1.4922C -0.497405 3.48181 -0.497405 6.68895 1.49221 8.67856C 3.48182 10.6682 6.68896 10.6682 8.67857 8.67856C 10.6682 6.68895 10.6682 3.45212 8.67857 1.4922ZM 4.72904 1.75947L 5.76839 1.75947C 6.09504 1.75947 6.12474 1.93764 6.12474 2.05643C 6.12474 2.08612 6.12474 2.08612 6.12474 2.14551L 6.12474 2.2643L 5.91686 6.09503C 5.88717 6.39199 5.76839 6.45139 5.56052 6.45139L 4.9963 6.45139C 4.78843 6.45139 4.66965 6.39199 4.61026 6.09503L 4.37269 2.14551C 4.37269 2.08612 4.37269 2.08612 4.37269 2.05643C 4.37269 1.93764 4.43208 1.75947 4.72904 1.75947ZM 5.26356 9.15371C 4.69935 9.15371 4.25391 8.70826 4.25391 8.17373C 4.25391 7.60952 4.69935 7.16409 5.26356 7.16409C 5.79809 7.16409 6.24352 7.60952 6.24352 8.17373C 6.27321 8.70826 5.79809 9.15371 5.26356 9.15371Z"/>
</defs>
</svg>
