<svg width="162" height="24" viewBox="0 0 162 24" version="1.1" xmlns="http://www.w3.org/2000/svg" xmlns:xlink="http://www.w3.org/1999/xlink">
<title>Layer 1</title>
<desc>Created using Figma</desc>
<g id="Canvas" transform="translate(32 1234)">
<g id="Layer 1">
<g id="Vector">
<use xlink:href="#path0_fill" transform="translate(-32 -1230.64)" fill="#FFFFFF"/>
</g>
<g id="Vector">
<use xlink:href="#path1_fill" transform="translate(-3.90262 -1227.02)" fill="#FFFFFF"/>
</g>
<g id="Vector">
<use xlink:href="#path2_fill" transform="translate(23.2977 -1226.94)" fill="#FFFFFF"/>
</g>
<g id="Vector">
<use xlink:href="#path3_fill" transform="translate(40.0023 -1230.64)" fill="#FFFFFF"/>
</g>
<g id="Vector">
<use xlink:href="#path4_fill" transform="translate(52.1147 -1226.81)" fill="#FFFFFF"/>
</g>
<g id="Vector">
<use xlink:href="#path5_fill" transform="translate(70.3919 -1233.59)" fill="#FFFFFF"/>
</g>
<g id="Vector">
<use xlink:href="#path6_fill" transform="translate(86.1588 -1226.77)" fill="#FFFFFF"/>
</g>
<g id="Vector">
<use xlink:href="#path7_fill" transform="translate(100.997 -1226.84)" fill="#FFFFFF"/>
</g>
<g id="Vector">
<use xlink:href="#path8_fill" transform="translate(114.424 -1233.59)" fill="#FFFFFF"/>
</g>
</g>
</g>
<defs>
<path id="path0_fill" d="M 25.768 7.31863L 26.3924 4.11673C 26.4032 4.07428 26.4039 4.02991 26.3946 3.98712C 26.3853 3.94433 26.3662 3.90428 26.3388 3.87013C 26.3113 3.83598 26.2764 3.80867 26.2366 3.79035C 26.1968 3.77202 26.1533 3.76318 26.1096 3.76452L 21.8884 3.76452L 22.5501 0.365171C 22.561 0.322269 22.5617 0.277405 22.5521 0.234188C 22.5425 0.19097 22.5229 0.150607 22.4949 0.116345C 22.4669 0.0820838 22.4312 0.0548804 22.3907 0.0369244C 22.3503 0.0189683 22.3062 0.0107608 22.2619 0.0129622L 18.2222 0.0129622C 18.0555 0.018898 17.8956 0.0804412 17.768 0.187789C 17.6403 0.295137 17.5522 0.442116 17.5178 0.605314L 16.0929 7.91098L 11.1247 7.91098L 12.5922 0.354498C 12.6039 0.309717 12.6045 0.262741 12.5938 0.217694C 12.5832 0.172646 12.5616 0.130904 12.531 0.0961313C 12.5005 0.0613584 12.4619 0.0346177 12.4186 0.0182559C 12.3753 0.00189405 12.3286 -0.00358854 12.2827 0.00228924L 8.28031 0.00228924C 8.11362 0.00822499 7.95371 0.0697682 7.82605 0.177116C 7.6984 0.284464 7.61033 0.431443 7.57589 0.594641L 6.94618 3.75385L 2.9865 3.75385C 2.81981 3.75978 2.6599 3.82133 2.53224 3.92868C 2.40459 4.03602 2.31652 4.183 2.28208 4.3462L 1.65771 7.5481C 1.64711 7.59082 1.64644 7.6354 1.65574 7.67842C 1.66505 7.72144 1.68409 7.76176 1.71139 7.79628C 1.7387 7.8308 1.77355 7.8586 1.81327 7.87756C 1.85299 7.89652 1.89653 7.90613 1.94054 7.90565L 6.15104 7.90565L 5.34523 12.0681L 1.34819 12.0681C 1.18111 12.0747 1.0209 12.1364 0.892522 12.2435C 0.764145 12.3507 0.67481 12.4973 0.638436 12.6605L 0.00872895 15.873C -0.00218404 15.9159 -0.00287428 15.9608 0.00671377 16.004C 0.0163018 16.0472 0.0359004 16.0876 0.0639327 16.1219C 0.0919649 16.1561 0.127648 16.1833 0.168111 16.2013C 0.208574 16.2192 0.252687 16.2275 0.2969 16.2253L 4.53408 16.2253L 3.87769 19.6246C 3.86573 19.6671 3.86409 19.7119 3.87292 19.7552C 3.88175 19.7985 3.90078 19.8391 3.92845 19.8735C 3.95612 19.908 3.99161 19.9353 4.03197 19.9533C 4.07234 19.9712 4.11641 19.9793 4.16053 19.9768L 8.18425 19.9768C 8.35087 19.9714 8.51097 19.9108 8.63944 19.8046C 8.7679 19.6983 8.85744 19.5524 8.894 19.3898L 10.3135 12.0681L 15.2871 12.0681L 13.8196 19.6246C 13.8076 19.6671 13.806 19.7119 13.8148 19.7552C 13.8236 19.7985 13.8427 19.8391 13.8704 19.8735C 13.898 19.908 13.9335 19.9353 13.9739 19.9533C 14.0142 19.9712 14.0583 19.9793 14.1024 19.9768L 18.1528 19.9768C 18.3192 19.9705 18.4788 19.9096 18.6071 19.8035C 18.7354 19.6974 18.8252 19.552 18.8626 19.3898L 19.4763 16.2253L 23.4733 16.2253C 23.64 16.2193 23.7999 16.1578 23.9276 16.0504C 24.0552 15.9431 24.1433 15.7961 24.1777 15.6329L 24.8021 12.431C 24.8127 12.3883 24.8134 12.3437 24.8041 12.3007C 24.7948 12.2577 24.7757 12.2173 24.7484 12.1828C 24.7211 12.1483 24.6863 12.1205 24.6466 12.1015C 24.6068 12.0826 24.5633 12.073 24.5193 12.0735L 20.2554 12.0735L 21.0666 7.91632L 25.0903 7.91632C 25.2527 7.90352 25.4066 7.83833 25.5289 7.73054C 25.6511 7.62276 25.735 7.47821 25.768 7.31863Z"/>
<path id="path1_fill" d="M 24.0381 16.1487C 23.9667 16.2268 23.8776 16.2866 23.7781 16.3228C 23.6787 16.3591 23.572 16.3707 23.4671 16.3568L 19.8916 16.3568C 19.3953 16.3568 19.1979 16.1327 19.3046 15.6791L 20.9643 7.14068C 21.1635 6.14453 21.1421 5.4828 20.9002 5.1555C 20.7447 4.97504 20.5483 4.83439 20.3273 4.74527C 20.1064 4.65615 19.8673 4.62115 19.6301 4.64319C 19.1188 4.66608 18.6143 4.77057 18.1359 4.95271C 17.5901 5.13245 17.0555 5.3445 16.535 5.58775L 16.2415 7.08197L 14.6032 15.6791C 14.562 15.8476 14.4896 16.0069 14.3897 16.1487C 14.314 16.2287 14.2202 16.2893 14.1162 16.3255C 14.0122 16.3617 13.901 16.3725 13.792 16.3568L 10.2005 16.3568C 9.72559 16.3568 9.53881 16.1327 9.66689 15.6791L 11.3265 7.02861C 11.4973 6.11607 11.476 5.4917 11.2572 5.1555C 11.1169 4.97108 10.9308 4.8267 10.7172 4.7368C 10.5037 4.6469 10.2703 4.61462 10.0404 4.64319C 9.53547 4.66377 9.03677 4.76279 8.56223 4.9367C 7.9999 5.11529 7.45069 5.33284 6.91859 5.58775L 4.99745 15.6791C 4.95057 15.8484 4.87278 16.0076 4.76798 16.1487C 4.68685 16.2273 4.58915 16.2868 4.48204 16.3229C 4.37493 16.3589 4.26112 16.3705 4.14895 16.3568L 0.573492 16.3568C 0.0932073 16.3568 -0.0882337 16.1327 0.0398423 15.6791L 2.86819 1.04639C 2.90009 0.846385 2.99117 0.660516 3.12968 0.512742C 3.20992 0.443438 3.30314 0.390767 3.40391 0.357787C 3.50468 0.324808 3.611 0.312176 3.71669 0.320628L 7.29215 0.320628C 7.59633 0.320628 7.77243 0.395339 7.8258 0.544761C 7.87418 0.704838 7.87418 0.875642 7.8258 1.03572L 7.6657 1.7935L 7.69772 1.82552C 8.47578 1.27427 9.32488 0.830868 10.2219 0.507406C 11.049 0.201899 11.923 0.0429802 12.8048 0.0377934C 13.6597 0.00986943 14.5083 0.193162 15.2756 0.571443C 15.6008 0.740064 15.8856 0.977179 16.1104 1.26646C 16.3352 1.55573 16.4946 1.8903 16.5777 2.2471C 17.4855 1.60849 18.4609 1.07161 19.4861 0.646155C 20.4374 0.237379 21.4604 0.021526 22.4958 0.0111108C 23.388 -0.0506118 24.2791 0.145762 25.0627 0.57678C 25.6005 0.926296 26.0018 1.45008 26.1994 2.06033C 26.4015 2.72338 26.4633 3.42128 26.3808 4.10954C 26.3008 4.86733 26.1887 5.62511 26.0393 6.38289L 24.2516 15.6791C 24.2058 15.846 24.1338 16.0045 24.0381 16.1487Z"/>
<path id="path2_fill" d="M 0.002544 11.1039C 0.00510661 10.401 0.0657918 9.69953 0.183983 9.00664C 0.301386 8.30222 0.450808 7.61381 0.621576 6.94141C 0.849078 6.09149 1.15456 5.26438 1.53412 4.47062C 1.92726 3.63093 2.46973 2.86967 3.13507 2.22395C 3.89051 1.52568 4.77517 0.981834 5.73928 0.622998C 6.97922 0.177862 8.29132 -0.0320732 9.60825 0.00396428C 10.3473 0.000821936 11.0839 0.0886447 11.8015 0.265453C 12.4628 0.418451 13.0916 0.687679 13.6586 1.06059C 14.1883 1.40691 14.6289 1.8731 14.9447 2.4214C 15.2706 3.0122 15.4345 3.67866 15.4197 4.35321C 15.4738 5.47467 15.1085 6.5761 14.3951 7.44305C 13.6947 8.23468 12.8195 8.85225 11.8389 9.24678C 10.7821 9.68108 9.6736 9.97704 8.54095 10.1273C 7.35624 10.2874 5.93673 10.4101 4.93881 10.4528C 4.82863 10.8311 4.76941 11.2223 4.7627 11.6162C 4.7627 12.5928 6.43303 12.6835 6.75855 12.7315C 7.99128 12.8916 10.4941 12.5821 12.3299 12.2566C 12.5206 12.2068 12.7208 12.2068 12.9115 12.2566C 13.0663 12.3099 13.141 12.4914 13.141 12.7902L 13.141 14.3485C 13.1693 14.6727 13.0946 14.9977 12.9275 15.277C 12.6712 15.5319 12.3531 15.7158 12.0043 15.8107C 11.5898 15.9553 11.1654 16.0694 10.7342 16.1522C 10.2593 16.2483 9.75767 16.3283 9.24003 16.3817C 8.72239 16.4351 8.17273 16.4777 7.67643 16.5098C 7.18014 16.5418 6.67317 16.5578 6.21423 16.5578C 5.36163 16.5782 4.50988 16.4903 3.67939 16.2963C 2.9661 16.1252 2.29925 15.799 1.72623 15.3411C 1.17478 14.8806 0.741188 14.2951 0.461483 13.6334C 0.134093 12.8314 -0.0222224 11.9698 0.002544 11.1039ZM 10.7663 4.97758C 10.7715 4.78484 10.7346 4.59328 10.6581 4.4163C 10.5816 4.23931 10.4673 4.08119 10.3233 3.95298C 9.9782 3.66352 9.53477 3.51825 9.08527 3.5474C 8.5201 3.53781 7.96418 3.69161 7.48432 3.99033C 7.09598 4.28147 6.7664 4.64364 6.51307 5.05763C 6.23474 5.51346 6.01594 6.00307 5.86202 6.51449C 5.69659 7.04815 5.70193 6.98411 5.57385 7.49107C 8.2421 7.61915 9.93911 6.75464 10.27 6.38108C 10.605 5.99174 10.7821 5.49101 10.7663 4.97758Z"/>
<path id="path3_fill" d="M 10.0497 18.507C 10.0614 18.6244 10.0484 18.7429 10.0116 18.855C 9.97487 18.9671 9.91515 19.0703 9.83626 19.158C 9.69191 19.3426 9.49451 19.4786 9.2706 19.5476C 8.83865 19.6842 8.39837 19.793 7.95248 19.8731C 7.48287 19.9585 7.0346 20.0332 6.60235 20.0866C 6.17009 20.14 5.75385 20.1773 5.36428 20.1987C 4.97472 20.22 4.64919 20.2307 4.39303 20.2307C 3.57307 20.2706 2.75494 20.1209 2.00228 19.7931C 1.47652 19.5457 1.03893 19.1435 0.748203 18.6404C 0.481028 18.1344 0.346971 17.5688 0.358641 16.9968C 0.360913 16.3461 0.427044 15.6973 0.556089 15.0596L 1.98628 7.81264L 0.582773 7.81264C 0.321284 7.81264 0.150518 7.75394 0.075807 7.6312C -0.00465484 7.4651 -0.0217308 7.27534 0.0277805 7.09755L 0.513396 4.65877C 0.540774 4.46056 0.626189 4.27488 0.758879 4.12512C 0.918528 3.99338 1.12377 3.93008 1.32988 3.94901L 2.79208 3.94901L 3.40044 0.827158C 3.56588 0.186777 3.80602 1.11964e-07 4.36635 1.11964e-07L 7.84575 1.11964e-07C 8.3794 1.11964e-07 8.29401 0.3362 8.25132 0.597688L 7.60561 3.94901L 10.9196 3.94901C 11.2238 3.94901 11.3999 4.00238 11.4532 4.10911C 11.5071 4.28292 11.5071 4.46895 11.4532 4.64276L 10.9623 7.11356C 10.9376 7.30579 10.8661 7.48902 10.7541 7.64721C 10.6725 7.71891 10.5764 7.77223 10.4724 7.80353C 10.3683 7.83484 10.2588 7.8434 10.1511 7.82865L 6.79979 7.82865L 5.65778 13.8589C 5.59947 14.1224 5.562 14.39 5.54572 14.6594C 5.52932 14.8464 5.57427 15.0338 5.67379 15.193C 5.81041 15.358 5.99824 15.4726 6.20744 15.5185C 6.55652 15.6039 6.91555 15.6416 7.27474 15.6306C 7.53801 15.6306 7.87955 15.6199 8.29936 15.5986C 8.71916 15.5772 9.13541 15.5452 9.5481 15.5025C 9.72832 15.4937 9.90874 15.5153 10.0817 15.5666C 10.1992 15.6093 10.2472 15.8174 10.2258 16.1856L 10.0497 18.507Z"/>
<path id="path4_fill" d="M 14.0322 15.4308C 14.0087 15.6084 13.9408 15.7773 13.8348 15.9218C 13.7568 16.0056 13.66 16.0697 13.5524 16.1087C 13.4447 16.1476 13.3293 16.1604 13.2157 16.1459L 9.54423 16.1459C 9.2614 16.1459 9.09063 16.0872 9.01058 15.9698C 8.96002 15.8064 8.96002 15.6315 9.01058 15.4682L 9.17601 14.6517L 9.14399 14.6196C 8.33386 15.1641 7.46581 15.6169 6.55579 15.9698C 5.80387 16.2555 5.00673 16.4037 4.20239 16.4074C 2.59788 16.4074 1.49678 15.9911 0.899093 15.1586C 0.256906 14.1571 -0.0548025 12.9794 0.00789862 11.7913C 0.0099416 11.2416 0.0473781 10.6926 0.119969 10.1477C 0.19468 9.57665 0.285403 8.97363 0.397469 8.34392C 0.605753 7.17994 0.900064 6.03301 1.27799 4.91255C 1.60149 3.97083 2.07547 3.08775 2.68149 2.29767C 3.23882 1.57768 3.95709 0.998306 4.77873 0.605997C 5.74559 0.178403 6.79581 -0.0276296 7.85256 0.00297204C 8.51331 0.0189202 9.16946 0.117523 9.80571 0.29648C 10.508 0.480614 11.184 0.753177 11.8176 1.10763L 11.951 0.573978C 11.9574 0.492076 11.9806 0.412369 12.0191 0.339833C 12.0577 0.267297 12.1108 0.203489 12.1751 0.152394C 12.3274 0.0771447 12.4964 0.0422336 12.6661 0.0510006L 16.2736 0.0510006C 16.5777 0.0510006 16.7538 0.120375 16.8072 0.248451C 16.8541 0.423245 16.8541 0.607307 16.8072 0.782101L 14.0322 15.4308ZM 8.69572 4.09607C 8.27857 4.08876 7.8633 4.15375 7.46833 4.28818C 7.13642 4.41986 6.84285 4.6327 6.61449 4.90722C 6.29388 5.4067 6.0375 5.94458 5.85137 6.50817C 5.66614 7.05025 5.5199 7.60488 5.41378 8.16782C 5.26287 8.8863 5.17536 9.61665 5.15229 10.3504C 5.09072 10.8326 5.21263 11.3202 5.49382 11.7166C 5.79624 11.955 6.17714 12.0711 6.56112 12.0421C 7.1899 12.0107 7.81213 11.8995 8.41289 11.7113C 8.91001 11.5533 9.38792 11.3403 9.83773 11.0762L 11.1078 4.64039C 10.3476 4.29028 9.52198 4.10478 8.68505 4.09607L 8.69572 4.09607Z"/>
<path id="path5_fill" d="M 12.9974 22.3707C 12.9774 22.532 12.8942 22.6787 12.7662 22.7788C 12.6381 22.8788 12.4756 22.924 12.3143 22.9044L 10.9482 22.9044C 10.58 22.9044 10.4145 22.7229 10.5266 22.3707L 12.4104 12.765C 12.5284 12.1595 12.5998 11.5457 12.6238 10.9293C 12.6523 10.5347 12.5845 10.1392 12.4264 9.77658C 12.3578 9.6379 12.2619 9.51445 12.1446 9.4136C 12.0272 9.31275 11.8907 9.23656 11.7433 9.18957C 11.3489 9.07172 10.9381 9.01767 10.5266 9.02947C 10.0423 9.04344 9.56175 9.11875 9.09641 9.25361C 8.53074 9.40836 7.97574 9.57913 7.42075 9.78726C 6.86575 9.99538 6.35345 10.1822 5.84648 10.3903C 5.33951 10.5984 4.96596 10.7638 4.70447 10.8919L 2.46314 22.4027C 2.44313 22.564 2.35998 22.7107 2.23193 22.8108C 2.10388 22.9108 1.94138 22.956 1.78007 22.9364L 0.445944 22.9364C 0.077725 22.9364 -0.0610286 22.755 0.0243554 22.4027L 4.25087 0.533764C 4.27292 0.383422 4.34904 0.246281 4.46496 0.148041C 4.58089 0.0498016 4.72865 -0.00279279 4.88057 0.000114387L 6.2147 0.000114387C 6.60426 0.000114387 6.74835 0.186892 6.70032 0.533764L 5.09937 8.78933L 5.16874 8.78933C 5.46759 8.61856 5.85182 8.41044 6.32143 8.1703C 6.81806 7.9212 7.32752 7.69854 7.84767 7.50323C 8.41243 7.2951 8.98779 7.11697 9.57136 6.96958C 10.1396 6.82202 10.7239 6.74495 11.3111 6.74011C 12.1385 6.69745 12.9641 6.85488 13.7178 7.19905C 14.2466 7.46401 14.6657 7.90585 14.9025 8.44779C 15.1421 9.05258 15.2371 9.70494 15.18 10.3529C 15.1287 11.1601 15.02 11.9626 14.8545 12.7543L 12.9974 22.3707Z"/>
<path id="path6_fill" d="M 12.3113 15.5551C 12.3004 15.7072 12.2297 15.8487 12.1146 15.9487C 11.9996 16.0487 11.8497 16.0991 11.6976 16.0888L 10.3635 16.0888C 9.97393 16.0888 9.82984 15.9074 9.90989 15.5551L 10.134 14.3171C 9.27251 14.8393 8.38161 15.3115 7.46577 15.7313C 6.42689 16.1931 5.29916 16.4208 4.16248 16.3983C 2.66825 16.3983 1.60095 16.0248 0.960574 15.2777C 0.320194 14.5305 2.57103e-06 13.4312 2.57103e-06 11.9797C -0.000527643 11.4052 0.0351261 10.8313 0.106739 10.2613C 0.18145 9.63163 0.282839 9.00193 0.410915 8.37222C 0.638313 7.159 0.954009 5.964 1.35548 4.79676C 1.67974 3.83858 2.17516 2.94718 2.81767 2.16587C 3.41669 1.45572 4.17571 0.897884 5.03233 0.538237C 6.05361 0.14952 7.14208 -0.0318928 8.23423 0.00458663C 8.94341 0.0207858 9.64785 0.124749 10.3315 0.314104C 11.1416 0.520686 11.9271 0.814115 12.6742 1.18929L 12.7062 1.15727L 12.8023 0.698332C 12.8089 0.62718 12.8309 0.558322 12.8668 0.496567C 12.9028 0.434811 12.9518 0.381647 13.0104 0.340786C 13.1741 0.288833 13.3459 0.267133 13.5174 0.276748L 14.7288 0.276748C 14.9689 0.276748 15.1183 0.314104 15.1877 0.394151C 15.2571 0.474199 15.2624 0.623621 15.2197 0.863764L 12.3113 15.5551ZM 12.3113 3.23317C 10.9033 2.58935 9.3767 2.24585 7.82866 2.22457C 7.20077 2.2085 6.57567 2.31359 5.98756 2.53409C 5.46148 2.75175 5.00677 3.1122 4.67478 3.57471C 4.25662 4.15929 3.93251 4.80571 3.71421 5.49051C 3.39951 6.45305 3.15692 7.43769 2.98845 8.43626C 2.85503 9.13 2.75364 9.75437 2.67893 10.32C 2.61201 10.7833 2.57458 11.2502 2.56687 11.7182C 2.56687 12.7375 2.75364 13.3992 3.13253 13.7034C 3.63461 14.0422 4.23619 14.202 4.84021 14.157C 5.30202 14.1481 5.76092 14.0817 6.20636 13.9595C 6.7484 13.8267 7.28284 13.6646 7.80731 13.4739C 8.34096 13.2765 8.87461 13.079 9.34956 12.8709C 9.8245 12.6628 10.2301 12.4867 10.5343 12.3372L 12.3113 3.23317Z"/>
<path id="path7_fill" d="M 13.2803 2.22535C 13.2563 2.30187 13.2142 2.37145 13.1575 2.42814C 13.1008 2.48483 13.0313 2.52695 12.9547 2.55088C 12.7643 2.5961 12.5673 2.60694 12.3731 2.5829L 10.3238 2.36944C 9.63251 2.29599 8.93783 2.25859 8.24261 2.25737C 7.75827 2.2544 7.27452 2.29188 6.79642 2.36944C 6.38865 2.43185 5.996 2.56937 5.63839 2.77501C 5.31976 2.96288 5.05649 3.23168 4.87528 3.55414C 4.67689 3.94532 4.5814 4.38058 4.59778 4.81889C 4.58575 5.14147 4.67739 5.45941 4.85927 5.72609C 5.03925 5.96951 5.26604 6.17453 5.52633 6.32912C 5.82333 6.49864 6.14074 6.62955 6.47089 6.71868C 6.82665 6.81474 7.18242 6.89479 7.53819 6.95883C 7.88506 7.02286 8.32265 7.12959 8.8563 7.26834C 9.39672 7.41431 9.91535 7.63145 10.3986 7.91406C 10.9023 8.21288 11.3355 8.617 11.6686 9.09876C 12.0378 9.66796 12.2241 10.3365 12.2023 11.0146C 12.2389 11.9366 12.0464 12.8534 11.642 13.6828C 11.287 14.3534 10.7673 14.9227 10.1317 15.3371C 9.45997 15.7604 8.71383 16.0519 7.9331 16.1963C 7.06924 16.359 6.19191 16.4394 5.31287 16.4365C 4.90018 16.4365 4.45192 16.4204 3.96808 16.3884C 3.47712 16.3564 3.00751 16.3084 2.5539 16.2443C 2.1003 16.1803 1.66804 16.1003 1.26781 16.0149C 0.924999 15.9469 0.591703 15.8376 0.275216 15.6893C 0.158528 15.6248 0.0702505 15.5188 0.0277787 15.3924C -0.014693 15.266 -0.00828483 15.1282 0.0457419 15.0063L 0.307233 14.3232C 0.330876 14.2389 0.372116 14.1607 0.428228 14.0935C 0.48434 14.0264 0.554048 13.9719 0.63276 13.9336C 0.790566 13.8888 0.956063 13.8779 1.11838 13.9016L 2.18568 14.0297C 2.59126 14.0777 2.99683 14.1151 3.40774 14.1471L 4.60845 14.2271C 5.00335 14.2271 5.32355 14.2592 5.58504 14.2592C 6.12141 14.2632 6.6571 14.2204 7.18599 14.1311C 7.63443 14.0552 8.06721 13.9055 8.46675 13.6882C 8.83031 13.4892 9.13005 13.1913 9.33126 12.829C 9.55264 12.3857 9.65907 11.8939 9.64077 11.3988C 9.67139 11.076 9.61117 10.751 9.4669 10.4606C 9.32263 10.1701 9.10005 9.9258 8.82428 9.75515C 8.21938 9.41978 7.55997 9.19396 6.87647 9.08809C 6.36072 9.0127 5.84944 8.90937 5.34489 8.77857C 4.78437 8.64474 4.24544 8.43277 3.74394 8.14887C 3.27148 7.85561 2.86748 7.46435 2.55924 7.00152C 2.20564 6.46241 2.03018 5.82591 2.05761 5.18177C 2.03583 4.3428 2.21901 3.51118 2.59126 2.759C 2.92086 2.11351 3.40937 1.56255 4.01077 1.15805C 4.63668 0.742616 5.33283 0.444271 6.06532 0.277527C 6.8612 0.091233 7.67604 -0.00189191 8.49342 2.89125e-05C 8.7976 2.89125e-05 9.17117 2.91362e-05 9.61943 0.0320481C 10.0677 0.0640671 10.5213 0.101423 10.9909 0.165461C 11.4605 0.229499 11.9034 0.314883 12.325 0.416276C 12.6909 0.498048 13.0483 0.614187 13.3923 0.763149C 13.4559 0.780271 13.5131 0.815699 13.5567 0.865033C 13.6004 0.914366 13.6286 0.975432 13.6378 1.04065C 13.6476 1.16889 13.6313 1.2978 13.5898 1.41954L 13.2803 2.22535Z"/>
<path id="path8_fill" d="M 13.0236 22.3715C 13.0023 22.5322 12.9188 22.6781 12.7911 22.7778C 12.6634 22.8776 12.5016 22.9233 12.3406 22.9051L 10.9744 22.9051C 10.6062 22.9051 10.4408 22.7237 10.5528 22.3715L 12.4366 12.7658C 12.552 12.1598 12.6233 11.5463 12.6501 10.93C 12.6758 10.5356 12.6082 10.1407 12.4526 9.77735C 12.384 9.63867 12.2881 9.51522 12.1708 9.41437C 12.0534 9.31352 11.917 9.23733 11.7696 9.19034C 11.3751 9.07249 10.9643 9.01844 10.5528 9.03024C 10.0686 9.04421 9.58798 9.11952 9.12264 9.25438C 8.55697 9.40913 7.99665 9.5799 7.44699 9.78803C 6.89733 9.99615 6.37969 10.1829 5.84604 10.3911C 5.31239 10.5992 4.97085 10.7646 4.70936 10.8927L 2.47337 22.3715C 2.45203 22.5322 2.36854 22.6781 2.24082 22.7778C 2.1131 22.8776 1.95135 22.9233 1.79029 22.9051L 0.456169 22.9051C 0.0879505 22.9051 -0.0774856 22.7237 0.034581 22.3715L 4.27711 0.534533C 4.29952 0.380407 4.37872 0.24022 4.49918 0.141488C 4.61963 0.0427556 4.77263 -0.00739366 4.92816 0.000882861L 6.25694 0.000882861C 6.65184 0.000882861 6.7906 0.18766 6.74791 0.534533L 5.14162 8.81145L 5.20565 8.81145C 5.50983 8.64068 5.89407 8.43256 6.36368 8.19241C 6.85986 7.94235 7.36936 7.71966 7.88991 7.52535C 8.45467 7.31721 9.03004 7.13908 9.61361 6.9917C 10.1819 6.84413 10.7662 6.76706 11.3533 6.76223C 12.1808 6.71957 13.0063 6.87699 13.7601 7.22117C 14.2877 7.48758 14.7065 7.92897 14.9448 8.46991C 15.1843 9.0747 15.2793 9.72706 15.2223 10.375C 15.1684 11.182 15.0596 11.9843 14.8967 12.7765L 13.0236 22.3715Z"/>
</defs>
</svg>
