<svg width="12" height="12" viewBox="0 0 12 12" version="1.1" xmlns="http://www.w3.org/2000/svg" xmlns:xlink="http://www.w3.org/1999/xlink">
<title>Vector</title>
<desc>Created using Figma</desc>
<g id="Canvas" transform="translate(-6602 1992)">
<g id="Vector">
<use xlink:href="#path0_fill" transform="translate(6602.54 -1991.71)" fill="#99CEFF"/>
</g>
</g>
<defs>
<path id="path0_fill" d="M 10.4349 1.25891C 9.98732 1.25891 9.61433 1.63192 9.61433 2.07953L 9.61433 7.56277C 9.61433 8.01038 9.35323 8.12229 9.01753 7.82388L 1.44541 0.251781C 1.1097 -0.0839277 0.587508 -0.0839277 0.2518 0.251781C -0.0839089 0.58749 -0.0839089 1.1097 0.2518 1.44541L 7.82387 9.01751C 8.15958 9.35322 8.04769 9.61432 7.56278 9.61432L 2.07951 9.61432C 1.6319 9.61432 1.25891 9.98733 1.25891 10.4349C 1.25891 10.8826 1.6319 11.2556 2.07951 11.2556L 8.7191 11.2556C 9.16671 11.2556 9.91273 11.2556 10.3976 11.2556C 10.8826 11.2556 11.2182 11.2556 11.2182 11.2556C 11.2182 11.2556 11.2182 10.8826 11.2182 10.4349L 11.2182 2.11683C 11.2555 1.63192 10.8825 1.25891 10.4349 1.25891Z"/>
</defs>
</svg>
